<?xml version="1.0" standalone="no"?>
<!DOCTYPE svg PUBLIC "-//W3C//DTD SVG 20010904//EN"
 "http://www.w3.org/TR/2001/REC-SVG-20010904/DTD/svg10.dtd">
<svg version="1.0" xmlns="http://www.w3.org/2000/svg"
 width="500.000000pt" height="500.000000pt" viewBox="0 0 500.000000 500.000000"
 preserveAspectRatio="xMidYMid meet">

<g transform="translate(0.000000,500.000000) scale(0.100000,-0.100000)"
fill="#000000" stroke="none">
<path d="M3534 4698 c-16 -18 -33 -40 -39 -49 -40 -63 -94 -140 -122 -175 -18
-23 -33 -44 -33 -49 0 -4 -21 -37 -48 -74 -72 -101 -116 -166 -132 -196 -6
-11 -25 -28 -42 -38 -23 -13 -29 -22 -25 -38 5 -18 2 -20 -19 -16 -26 5 -29 0
-15 -22 7 -11 1 -21 -22 -39 -18 -13 -31 -28 -29 -33 1 -6 -12 -7 -33 -3 -52
9 -125 -4 -125 -23 0 -10 5 -13 18 -8 9 4 41 9 71 12 l54 6 -6 -61 c-3 -34 -1
-65 4 -68 5 -3 9 -27 9 -53 0 -42 3 -50 23 -55 l22 -7 -22 -9 c-24 -10 -32
-53 -13 -65 6 -3 10 -16 10 -29 0 -33 22 -74 48 -87 12 -7 22 -18 22 -26 0 -7
10 -17 23 -22 12 -5 35 -21 51 -36 17 -15 45 -34 63 -41 18 -8 33 -21 33 -30
0 -12 6 -15 23 -11 12 3 30 0 41 -8 11 -8 30 -12 47 -8 18 3 29 1 29 -6 0 -6
-7 -11 -16 -11 -9 0 -14 -6 -11 -12 2 -8 20 -13 45 -12 36 1 39 -1 29 -17 -16
-25 -7 -30 36 -18 37 10 57 6 57 -12 0 -5 -10 -9 -21 -9 -18 0 -19 -2 -9 -15
15 -18 42 -19 58 -3 7 7 12 8 12 2 0 -15 -22 -34 -39 -34 -8 0 -23 -8 -34 -17
-18 -17 -19 -17 -32 1 -12 15 -23 18 -62 13 -26 -3 -56 -1 -65 4 -10 6 -19 5
-23 -1 -8 -14 -48 -13 -63 2 -8 8 -15 8 -26 -2 -28 -22 -7 -30 80 -30 47 0 95
-5 106 -11 14 -8 23 -8 31 0 7 7 14 7 23 0 8 -6 22 -7 36 -3 13 5 41 7 63 6
22 -2 61 4 88 12 26 8 56 12 68 9 12 -4 32 3 49 16 16 11 38 21 49 21 11 0 40
9 65 20 42 17 46 22 45 52 0 18 2 53 5 78 3 25 7 90 10 146 3 55 12 127 21
160 17 64 19 289 2 311 -5 7 -6 16 -3 21 2 4 1 24 -4 43 -5 18 -16 63 -25 99
-9 36 -20 81 -25 100 -18 70 -24 95 -25 107 0 6 -4 15 -8 19 -4 4 -7 18 -7 31
0 49 -49 181 -74 202 -25 21 -28 -5 -5 -49 15 -28 22 -63 24 -106 1 -36 7 -70
14 -77 6 -6 11 -20 11 -31 0 -11 8 -28 18 -39 12 -14 17 -36 17 -82 0 -50 4
-68 21 -87 19 -21 21 -36 22 -155 0 -73 4 -138 8 -144 11 -18 13 -83 3 -95 -5
-6 -7 -37 -5 -68 3 -43 1 -59 -10 -63 -8 -3 -14 -14 -14 -25 0 -14 5 -18 15
-14 16 6 19 -3 9 -27 -3 -9 -13 -13 -24 -10 -13 3 -29 -6 -50 -28 -16 -18 -30
-37 -30 -41 0 -5 -7 -8 -16 -8 -10 0 -13 -6 -9 -19 5 -15 -1 -19 -37 -25 -68
-11 -132 -7 -144 9 -6 8 -21 15 -33 15 -11 0 -21 4 -21 10 0 5 8 6 17 3 13 -5
15 -2 10 11 -4 10 -7 24 -7 32 0 12 -4 12 -20 4 -18 -10 -20 -8 -20 20 0 21 5
30 17 30 13 0 10 7 -12 30 -22 23 -36 29 -52 25 -20 -5 -23 -2 -23 23 0 27 -3
29 -37 28 -31 -1 -37 2 -35 17 4 23 -6 21 -28 -5 l-19 -23 -20 21 -20 22 22 7
c20 7 20 8 -7 12 -37 6 -88 -39 -68 -59 13 -13 16 -29 5 -26 -10 3 -66 -33
-76 -49 -4 -7 -20 -10 -42 -6 -20 3 -41 1 -48 -6 -8 -6 -17 -8 -20 -4 -12 11
-7 23 9 23 21 0 12 22 -15 36 -22 11 -50 42 -51 57 0 4 7 7 15 7 8 0 15 7 15
15 0 9 7 18 15 21 8 4 23 22 32 42 9 19 29 42 45 51 28 16 37 31 17 31 -6 0 6
16 27 35 20 19 41 35 46 35 6 0 7 11 4 24 -4 16 -1 26 9 30 8 3 22 23 31 45 8
22 22 42 30 45 9 3 12 11 9 16 -4 6 6 27 20 47 22 28 25 37 14 44 -11 7 -10 9
4 9 13 0 17 5 12 18 -3 11 3 29 15 45 11 14 20 34 20 44 0 10 5 24 11 30 8 8
8 13 0 17 -18 11 -13 26 9 26 15 0 20 7 20 24 0 14 5 28 10 31 6 3 10 15 10
25 0 11 15 34 33 53 27 26 31 36 23 49 -8 13 -5 21 13 37 16 14 21 26 16 40
-5 15 -2 21 9 21 22 0 20 17 -1 23 -14 4 -13 5 4 6 25 1 38 17 22 26 -6 4 -8
18 -5 31 9 35 -15 31 -50 -8z m-279 -508 c3 -5 1 -10 -4 -10 -6 0 -11 5 -11
10 0 6 2 10 4 10 3 0 8 -4 11 -10z m-30 -90 c-3 -5 -10 -10 -16 -10 -5 0 -9 5
-9 10 0 6 7 10 16 10 8 0 12 -4 9 -10z m125 -481 c0 -5 -9 -9 -20 -9 -11 0
-20 6 -20 14 0 9 7 12 20 9 11 -3 20 -9 20 -14z m170 -69 c0 -5 -4 -10 -10
-10 -5 0 -10 5 -10 10 0 6 5 10 10 10 6 0 10 -4 10 -10z m-290 -10 c0 -5 -5
-10 -11 -10 -5 0 -7 5 -4 10 3 6 8 10 11 10 2 0 4 -4 4 -10z m190 -10 c0 -5
-4 -10 -9 -10 -6 0 -13 5 -16 10 -3 6 1 10 9 10 9 0 16 -4 16 -10z m110 -28
c0 -10 -50 -35 -57 -28 -3 3 29 24 55 35 1 1 2 -3 2 -7z m-230 -72 c0 -5 -8
-10 -17 -10 -15 0 -16 2 -3 10 19 12 20 12 20 0z m237 -56 c-3 -3 -12 -4 -19
-1 -8 3 -5 6 6 6 11 1 17 -2 13 -5z m263 -8 c0 -3 -4 -8 -10 -11 -5 -3 -10 -1
-10 4 0 6 5 11 10 11 6 0 10 -2 10 -4z m-170 -36 c0 -5 -7 -10 -16 -10 -8 0
-12 5 -9 10 3 6 10 10 16 10 5 0 9 -4 9 -10z m175 0 c3 -5 -1 -10 -10 -10 -9
0 -13 5 -10 10 3 6 8 10 10 10 2 0 7 -4 10 -10z m-95 -20 c0 -5 -15 -10 -32
-10 -25 0 -29 3 -18 10 20 13 50 13 50 0z"/>
<path d="M2591 4625 c-17 -20 -31 -42 -31 -50 0 -8 -4 -15 -10 -15 -5 0 -13
-12 -17 -27 -3 -16 -21 -49 -39 -74 -17 -25 -35 -65 -39 -90 -4 -24 -16 -61
-26 -81 -19 -37 -19 -38 1 -58 18 -18 53 -26 105 -22 11 1 47 -3 80 -8 33 -5
83 -12 110 -15 28 -4 52 -10 53 -16 4 -10 62 -13 62 -3 0 3 -9 19 -20 34 -11
16 -25 52 -30 80 -5 28 -12 55 -14 58 -9 14 -56 203 -56 223 0 22 -28 79 -45
91 -22 17 -54 6 -84 -27z"/>
<path d="M2186 4231 c-19 -7 -19 -8 3 -14 26 -6 51 0 51 14 0 11 -27 11 -54 0z"/>
<path d="M2260 4230 c0 -5 12 -10 28 -10 21 0 24 2 12 10 -20 13 -40 13 -40 0z"/>
<path d="M2108 4208 c-16 -5 -28 -13 -28 -18 0 -5 -9 -12 -20 -15 -22 -7 -28
-45 -7 -45 7 0 26 -13 41 -29 24 -25 32 -28 53 -20 32 12 33 12 33 -5 0 -14
91 -32 141 -28 14 2 32 -4 39 -13 13 -16 30 -20 30 -7 0 9 -91 52 -111 52 -9
0 -35 14 -57 30 -23 17 -48 30 -56 30 -8 0 -18 5 -21 10 -3 6 -19 10 -36 10
-16 0 -29 5 -29 10 0 6 6 10 14 10 8 0 24 9 37 20 26 21 19 24 -23 8z m32 -88
c0 -5 -4 -10 -10 -10 -5 0 -10 5 -10 10 0 6 5 10 10 10 6 0 10 -4 10 -10z"/>
<path d="M2865 4160 c-6 -11 44 -34 53 -25 3 3 0 5 -6 5 -7 0 -12 7 -12 15 0
17 -25 20 -35 5z"/>
<path d="M2930 4150 c0 -5 6 -10 14 -10 8 0 23 -3 33 -7 16 -6 16 -5 4 10 -15
18 -51 23 -51 7z"/>
<path d="M3030 4125 c0 -8 -7 -15 -16 -15 -8 0 -13 -4 -9 -9 6 -11 64 -11 71
0 2 4 0 10 -6 14 -6 4 -8 11 -5 16 4 5 -3 9 -14 9 -12 0 -21 -7 -21 -15z"/>
<path d="M2310 4030 c0 -5 5 -10 11 -10 5 0 7 5 4 10 -3 6 -8 10 -11 10 -2 0
-4 -4 -4 -10z"/>
<path d="M2775 3960 c3 -5 13 -10 21 -10 8 0 14 5 14 10 0 6 -9 10 -21 10 -11
0 -17 -4 -14 -10z"/>
<path d="M1860 3939 c0 -5 5 -7 10 -4 6 3 10 8 10 11 0 2 -4 4 -10 4 -5 0 -10
-5 -10 -11z"/>
<path d="M1797 3851 c5 -18 3 -23 -8 -19 -8 3 -30 -1 -49 -8 -25 -9 -29 -13
-14 -13 11 -1 29 -10 39 -21 10 -11 26 -20 36 -20 10 0 21 -4 24 -10 3 -5 14
-10 24 -10 10 0 26 -9 36 -20 10 -11 29 -20 42 -20 13 0 31 -9 40 -20 10 -11
30 -20 46 -20 25 0 28 -2 17 -15 -19 -23 6 -19 32 5 18 17 19 20 5 26 -9 3
-21 3 -26 0 -10 -6 -43 7 -107 42 -34 18 -84 73 -84 91 0 6 -6 11 -14 11 -7 0
-21 10 -29 23 l-16 22 6 -24z"/>
<path d="M982 3828 c-21 -26 -44 -128 -33 -142 6 -7 8 -21 5 -31 -6 -14 -3
-16 15 -10 19 6 21 4 15 -19 -6 -26 10 -38 19 -13 2 6 3 4 2 -5 -4 -23 133
-158 160 -158 11 0 36 -13 55 -30 19 -16 43 -29 53 -30 9 0 17 -4 17 -9 0 -10
114 -61 136 -61 17 0 18 -19 3 -57 -6 -15 -16 -39 -21 -53 -6 -14 -16 -38 -24
-55 -17 -39 -19 -281 -2 -350 7 -27 21 -65 31 -84 10 -19 23 -55 27 -80 5 -25
16 -77 25 -116 8 -38 13 -76 9 -85 -6 -14 -13 -51 -17 -97 -2 -25 -68 -76
-112 -87 -16 -4 -36 -13 -44 -19 -8 -7 -28 -13 -45 -14 -17 0 -47 -6 -66 -11
l-35 -10 37 -1 c27 -1 47 -10 75 -36 25 -23 48 -35 67 -35 16 0 26 -3 23 -6
-6 -7 40 -53 56 -55 19 -4 23 -5 34 -12 6 -4 14 -3 18 3 3 5 11 10 16 10 6 0
7 -4 4 -10 -3 -5 -2 -10 4 -10 6 0 35 -11 66 -25 31 -14 60 -23 65 -20 6 3 10
3 10 -2 1 -34 50 -39 50 -5 0 13 3 12 14 -4 11 -14 11 -21 3 -26 -7 -4 5 -8
26 -8 31 0 37 -3 37 -21 0 -14 5 -19 15 -16 8 4 17 2 20 -2 3 -5 13 -7 24 -4
12 3 20 -2 23 -15 3 -12 18 -21 37 -25 18 -4 30 -11 26 -17 -3 -6 1 -7 10 -4
9 4 25 -2 38 -13 27 -25 61 -38 51 -20 -5 6 7 -3 25 -21 20 -20 43 -32 59 -32
21 0 24 -2 12 -10 -8 -5 -43 -10 -78 -10 -44 0 -62 -4 -60 -12 3 -7 36 -13 92
-15 100 -4 137 -21 133 -63 -1 -18 2 -24 13 -21 54 14 106 20 122 15 10 -3 18
-1 18 3 0 5 52 9 116 8 85 -1 119 2 129 12 9 8 16 9 20 3 3 -5 1 -10 -5 -10
-6 0 -8 -5 -4 -11 3 -6 16 -8 29 -5 14 4 27 0 35 -9 7 -8 16 -13 20 -10 11 7
80 -15 80 -25 0 -6 9 -10 21 -10 21 0 21 0 -2 18 -14 12 -20 25 -16 35 9 24
30 21 24 -2 -3 -15 1 -21 17 -23 16 -2 20 -9 18 -27 -2 -23 0 -23 47 -17 52 7
79 -8 47 -26 -16 -9 -16 -11 3 -25 12 -8 21 -20 21 -26 0 -7 9 -18 20 -25 31
-19 24 -32 -20 -32 -27 0 -43 -5 -47 -15 -9 -25 5 -30 26 -11 22 20 52 18 59
-2 2 -7 -5 -16 -17 -19 -12 -3 -21 -10 -21 -15 0 -5 10 -6 21 -3 21 7 69 -11
69 -26 0 -4 -11 -7 -24 -6 -35 3 -36 -15 -3 -31 30 -14 36 -32 11 -32 -26 0
-74 -33 -74 -52 0 -9 -4 -19 -9 -22 -5 -3 -12 -23 -16 -43 -4 -21 -18 -48 -31
-62 -13 -13 -24 -28 -24 -32 0 -16 -54 -71 -85 -85 -16 -8 -43 -23 -60 -34
-16 -11 -36 -23 -42 -26 -7 -3 -13 -10 -13 -15 0 -13 24 -11 56 6 16 8 38 12
50 9 12 -3 25 0 29 6 5 9 1 10 -15 5 -16 -5 -20 -4 -15 5 4 7 17 9 32 6 32 -9
48 1 32 20 -9 11 -8 14 3 14 8 0 19 -5 25 -11 17 -17 52 -1 59 27 3 13 17 33
31 44 13 10 23 27 21 37 -2 10 4 19 16 21 16 3 18 -1 13 -30 -4 -25 1 -42 21
-72 21 -30 27 -51 26 -88 0 -26 3 -48 8 -48 11 0 10 -38 -2 -45 -5 -3 -27 6
-47 20 -21 14 -45 25 -54 25 -9 0 -22 7 -29 15 -7 8 -17 15 -23 15 -5 0 -3 -8
5 -17 9 -10 13 -23 11 -30 -2 -6 5 -14 17 -18 20 -6 21 -8 4 -26 -15 -17 -15
-19 -1 -19 8 0 27 -13 40 -30 14 -16 30 -30 36 -30 6 0 20 -9 30 -19 16 -16
29 -19 75 -14 l54 6 0 104 c0 58 5 110 11 117 7 9 7 16 -1 24 -9 9 -9 15 0 24
18 18 15 27 -8 21 -33 -9 -24 22 13 41 17 9 57 20 87 25 59 10 95 21 177 58
28 13 60 23 70 23 10 0 30 12 45 28 36 38 50 48 79 55 32 8 159 128 159 150 0
9 6 17 14 17 13 0 24 19 27 45 0 6 12 25 25 43 20 25 22 32 10 32 -9 0 -16 -4
-16 -10 0 -5 -9 -10 -20 -10 -11 0 -25 -9 -32 -20 -10 -16 -24 -20 -62 -20
-44 0 -48 -2 -31 -13 25 -19 11 -37 -29 -37 -19 0 -39 -7 -46 -15 -7 -8 -16
-12 -21 -9 -16 10 -9 24 11 24 11 0 20 4 20 9 0 5 -21 9 -47 9 -54 0 -113 10
-129 23 -6 5 -18 7 -27 3 -8 -3 -18 -1 -22 5 -3 6 -21 11 -39 11 -17 0 -37 5
-44 12 -7 7 -12 8 -12 2 0 -10 -35 -11 -60 -2 -72 28 -182 37 -224 19 -35 -14
-56 -1 -36 24 11 14 10 18 -9 32 -15 10 -19 18 -12 23 17 10 2 40 -20 40 -10
0 -19 5 -19 10 0 6 -14 10 -32 10 -18 0 -45 11 -64 25 -18 14 -37 25 -43 25
-15 0 -14 20 2 24 60 17 134 42 142 48 6 4 20 7 30 7 40 1 167 29 178 40 6 6
24 11 39 11 15 0 28 4 28 9 0 13 56 19 75 8 11 -6 33 -3 65 7 27 9 60 16 74
16 14 0 28 5 32 11 4 7 22 9 45 6 31 -4 43 0 65 20 50 46 127 93 170 104 24 6
49 17 55 25 6 8 19 14 29 14 10 0 23 7 30 15 7 8 23 15 37 15 13 0 34 11 47
25 13 14 29 25 35 25 7 0 10 4 6 10 -3 5 -3 20 1 34 5 21 9 23 25 13 21 -13
38 -2 21 15 -21 21 -14 39 16 36 35 -4 37 23 2 33 -22 6 -22 7 -4 8 18 1 21 7
21 41 0 22 -4 40 -8 40 -5 0 -9 11 -9 25 0 14 -5 34 -12 45 -17 27 -4 35 26
15 25 -17 25 -16 39 17 12 27 12 37 1 58 -14 28 -109 120 -123 120 -5 0 -11 7
-15 15 -3 8 -17 15 -31 15 -22 0 -25 4 -20 20 3 11 2 20 -3 20 -6 0 -9 29 -8
66 l1 66 45 14 c25 8 66 21 91 29 26 8 52 15 58 15 6 0 40 13 74 30 35 16 69
30 76 30 6 0 14 7 17 15 4 8 18 15 34 15 16 0 42 11 58 25 17 14 37 25 45 25
36 0 155 100 201 168 58 85 33 172 -50 172 -27 0 -32 -3 -27 -17 4 -9 2 -14
-3 -10 -6 3 -29 -3 -52 -13 -22 -10 -61 -22 -86 -25 -25 -4 -47 -13 -50 -20
-3 -8 -43 -33 -90 -55 -48 -23 -86 -46 -86 -51 0 -5 -11 -9 -24 -9 -14 0 -28
-4 -31 -10 -3 -5 -15 -10 -27 -10 -11 0 -46 -16 -77 -34 -31 -19 -76 -39 -99
-44 -23 -6 -52 -17 -65 -25 -12 -8 -35 -17 -52 -20 -73 -14 -113 -26 -152 -46
-23 -11 -55 -21 -72 -21 -16 0 -33 -4 -36 -10 -3 -5 -20 -9 -38 -8 -18 1 -114
-2 -214 -7 -128 -5 -186 -5 -196 3 -7 6 -35 9 -62 8 -32 -3 -57 2 -73 12 -13
8 -37 15 -53 14 -18 0 -39 8 -50 19 -12 12 -27 18 -38 14 -12 -3 -21 0 -25 10
-3 8 -13 15 -22 15 -10 0 -14 5 -10 15 4 11 -2 15 -23 15 -17 0 -31 6 -35 16
-3 8 -14 14 -23 12 -10 -1 -33 5 -52 15 -19 9 -40 17 -47 17 -7 0 -28 8 -46
19 -18 10 -64 26 -103 35 -38 10 -81 24 -94 33 -15 10 -36 13 -57 10 -24 -4
-40 0 -57 13 -13 11 -43 22 -66 26 -23 4 -44 11 -47 15 -3 5 -18 9 -33 9 -15
0 -31 4 -37 10 -5 5 -25 10 -44 12 -19 1 -45 10 -58 19 -12 9 -31 15 -42 12
-14 -4 -20 0 -20 11 0 11 -9 16 -30 16 -18 0 -33 6 -36 15 -4 8 -14 15 -23 15
-9 0 -32 11 -50 24 -18 14 -38 23 -44 21 -15 -6 -41 15 -50 38 -3 9 -16 17
-27 17 -11 0 -20 6 -20 14 0 8 -15 17 -34 20 -19 4 -45 15 -57 25 -13 9 -32
20 -41 24 -11 4 -15 12 -12 22 4 10 0 15 -11 15 -10 0 -33 11 -52 26 -18 14
-33 22 -33 18 0 -3 -7 -1 -15 6 -8 7 -13 16 -10 20 3 5 -7 12 -23 18 -15 5
-42 24 -60 41 -17 17 -56 43 -85 56 -28 14 -63 32 -77 40 -31 18 -84 19 -98 3z
m435 -404 c-3 -3 -12 -4 -19 -1 -8 3 -5 6 6 6 11 1 17 -2 13 -5z m180 -30 c-3
-3 -12 -4 -19 -1 -8 3 -5 6 6 6 11 1 17 -2 13 -5z m63 -14 c0 -5 -9 -10 -21
-10 -11 0 -17 5 -14 10 3 6 13 10 21 10 8 0 14 -4 14 -10z m50 0 c0 -5 -2 -10
-4 -10 -3 0 -8 5 -11 10 -3 6 -1 10 4 10 6 0 11 -4 11 -10z m-253 -6 c-3 -3
-12 -4 -19 -1 -8 3 -5 6 6 6 11 1 17 -2 13 -5z m-60 -10 c-3 -3 -12 -4 -19 -1
-8 3 -5 6 6 6 11 1 17 -2 13 -5z m143 -4 c0 -5 -7 -10 -16 -10 -8 0 -12 5 -9
10 3 6 10 10 16 10 5 0 9 -4 9 -10z m-20 -29 c0 -5 -12 -8 -26 -8 -18 0 -22 2
-13 8 18 11 39 11 39 0z m489 -283 c19 -17 27 -19 42 -10 24 16 29 15 29 -3 0
-8 9 -15 19 -15 32 0 50 -11 44 -26 -3 -8 0 -14 5 -14 6 0 23 -12 39 -26 17
-15 35 -23 48 -21 13 3 42 -10 80 -37 46 -32 61 -48 63 -70 3 -22 8 -27 23
-23 14 4 21 -1 25 -19 4 -15 13 -24 25 -24 11 0 19 -7 19 -16 0 -9 8 -33 19
-53 10 -20 26 -61 36 -91 10 -30 22 -59 26 -64 5 -6 9 -29 9 -53 0 -32 -5 -46
-20 -55 -11 -7 -20 -23 -20 -35 0 -27 -25 -31 -39 -5 -10 16 -10 16 -11 0 0
-12 -12 -19 -37 -24 -21 -4 -55 -16 -75 -26 -20 -11 -48 -20 -62 -22 -26 -3
-49 -16 -28 -16 7 0 12 -7 12 -16 0 -14 -8 -16 -46 -10 -41 5 -50 3 -82 -24
-39 -32 -58 -37 -65 -17 -2 6 -8 9 -12 4 -5 -4 0 -14 11 -21 19 -14 19 -15 0
-22 -10 -4 -27 -2 -39 5 -16 10 -21 10 -28 -1 -5 -7 -21 -14 -36 -15 -15 -1
-37 -3 -48 -6 -20 -4 -85 28 -98 50 -4 7 -15 13 -22 13 -8 0 -15 6 -15 13 0 7
-9 32 -20 55 -11 22 -20 48 -20 57 0 9 -4 24 -9 33 -13 25 -42 203 -35 214 4
6 8 38 9 72 2 66 11 115 27 159 8 20 8 31 0 39 -7 7 -3 25 14 58 13 26 24 53
24 60 0 7 8 9 20 5 13 -4 20 -2 20 7 0 16 35 41 70 49 51 13 86 9 109 -13z
m426 -888 c-10 -11 -26 -20 -36 -20 -10 0 -21 -4 -24 -10 -3 -5 -10 -10 -16
-10 -5 0 -9 5 -9 10 0 6 7 10 15 10 8 0 15 5 15 10 0 6 11 10 24 10 14 0 28 5
31 10 3 6 9 10 12 10 3 0 -2 -9 -12 -20z m-145 -31 c0 -5 -9 -9 -20 -9 -17 0
-19 2 -8 14 13 14 28 12 28 -5z m260 -9 c0 -5 -4 -10 -10 -10 -5 0 -10 5 -10
10 0 6 5 10 10 10 6 0 10 -4 10 -10z m-1117 -37 c-7 -2 -19 -2 -25 0 -7 3 -2
5 12 5 14 0 19 -2 13 -5z m552 -251 c-3 -3 -11 0 -18 7 -9 10 -8 11 6 5 10 -3
15 -9 12 -12z m225 -123 c0 -7 8 -18 18 -25 9 -7 12 -14 6 -14 -12 0 -54 34
-54 44 0 3 7 6 15 6 8 0 15 -5 15 -11z m515 -38 c3 -5 1 -12 -4 -15 -12 -8
-41 3 -41 15 0 12 37 12 45 0z m155 -66 c0 -8 -6 -15 -14 -15 -17 0 -28 14
-19 24 12 12 33 6 33 -9z m85 -64 c3 -5 1 -12 -5 -16 -5 -3 -10 1 -10 9 0 18
6 21 15 7z m240 -91 c11 -18 -26 -23 -43 -6 -15 15 -14 16 10 16 15 0 30 -5
33 -10z m605 -18 c0 -13 -12 -22 -22 -16 -10 6 -1 24 13 24 5 0 9 -4 9 -8z
m-47 -28 c8 -8 -3 -34 -14 -34 -5 0 -9 9 -9 20 0 19 11 26 23 14z m-603 -24
c0 -5 -4 -10 -10 -10 -5 0 -10 5 -10 10 0 6 5 10 10 10 6 0 10 -4 10 -10z
m530 -20 c0 -5 -5 -10 -11 -10 -5 0 -7 5 -4 10 3 6 8 10 11 10 2 0 4 -4 4 -10z
m-525 -20 c-3 -5 -20 -10 -36 -10 -18 0 -28 4 -24 10 3 6 20 10 36 10 18 0 28
-4 24 -10z m315 0 c0 -5 -4 -10 -10 -10 -5 0 -10 5 -10 10 0 6 5 10 10 10 6 0
10 -4 10 -10z m-405 -50 c18 -8 17 -9 -7 -9 -16 -1 -28 4 -28 9 0 12 8 12 35
0z m475 -20 c0 -5 -4 -10 -10 -10 -5 0 -10 5 -10 10 0 6 5 10 10 10 6 0 10 -4
10 -10z m-535 -11 c10 -15 -1 -23 -20 -15 -9 3 -13 10 -10 16 8 13 22 13 30
-1z m15 -67 c0 -26 -11 -34 -27 -21 -20 17 -16 39 7 39 13 0 20 -7 20 -18z
m-80 -12 c0 -5 -2 -10 -4 -10 -3 0 -8 5 -11 10 -3 6 -1 10 4 10 6 0 11 -4 11
-10z m-54 -127 c-10 -10 -19 5 -10 18 6 11 8 11 12 0 2 -7 1 -15 -2 -18z m-1
-43 c3 -5 -1 -10 -10 -10 -9 0 -13 5 -10 10 3 6 8 10 10 10 2 0 7 -4 10 -10z
m245 -90 c0 -5 -4 -10 -10 -10 -5 0 -10 5 -10 10 0 6 5 10 10 10 6 0 10 -4 10
-10z m-60 -155 c0 -8 -4 -15 -10 -15 -5 0 -10 7 -10 15 0 8 5 15 10 15 6 0 10
-7 10 -15z m50 -24 c0 -5 -6 -14 -14 -20 -16 -13 -32 2 -21 19 8 12 35 13 35
1z"/>
<path d="M1917 2974 c-28 -15 -43 -41 -57 -102 -10 -42 5 -51 31 -19 11 15 41
32 71 41 44 13 55 13 77 1 27 -14 70 -57 111 -110 17 -23 21 -25 16 -8 -4 12
-2 24 4 28 16 10 12 23 -7 27 -10 2 -18 10 -18 19 0 18 -54 81 -99 117 -34 26
-87 29 -129 6z m58 -54 c3 -5 1 -10 -4 -10 -6 0 -11 5 -11 10 0 6 2 10 4 10 3
0 8 -4 11 -10z"/>
<path d="M1878 2603 c-20 -5 -29 -74 -14 -123 5 -19 10 -38 10 -42 1 -3 4 -10
9 -14 4 -4 7 -15 7 -25 0 -10 6 -22 14 -26 8 -4 15 -17 17 -28 6 -31 115 -82
177 -83 40 -1 52 2 52 13 0 8 5 15 10 15 6 0 10 7 10 15 0 17 -26 20 -35 4 -4
-6 -19 -7 -35 -4 -16 3 -31 2 -35 -4 -14 -24 -22 -8 -17 34 3 31 0 52 -12 69
-9 14 -16 32 -16 41 0 16 -16 49 -38 77 -8 9 -11 22 -7 27 3 6 -1 11 -9 11 -9
0 -16 6 -16 13 0 11 -44 41 -53 36 -1 -1 -9 -3 -19 -6z"/>
<path d="M1730 2570 c0 -5 5 -10 10 -10 6 0 10 5 10 10 0 6 -4 10 -10 10 -5 0
-10 -4 -10 -10z"/>
<path d="M3530 3819 c0 -10 31 -20 41 -13 17 10 9 19 -16 19 -14 0 -25 -3 -25
-6z"/>
<path d="M3535 3760 c-3 -5 1 -10 10 -10 9 0 13 5 10 10 -3 6 -8 10 -10 10 -2
0 -7 -4 -10 -10z"/>
<path d="M3355 3720 c3 -5 8 -10 11 -10 2 0 4 5 4 10 0 6 -5 10 -11 10 -5 0
-7 -4 -4 -10z"/>
<path d="M3530 3710 c0 -5 9 -10 21 -10 11 0 17 5 14 10 -3 6 -13 10 -21 10
-8 0 -14 -4 -14 -10z"/>
<path d="M3430 3679 c0 -6 8 -9 18 -6 9 2 30 -3 45 -10 15 -8 37 -11 48 -8 20
7 20 7 2 21 -21 16 -113 19 -113 3z"/>
<path d="M2085 3630 c-3 -5 0 -10 9 -10 8 0 21 -3 30 -6 11 -4 16 -1 16 10 0
18 -45 23 -55 6z"/>
<path d="M3510 3631 c0 -9 52 -31 73 -31 5 0 -2 9 -16 20 -26 21 -57 27 -57
11z"/>
<path d="M2320 3540 c0 -5 5 -10 11 -10 5 0 7 5 4 10 -3 6 -8 10 -11 10 -2 0
-4 -4 -4 -10z"/>
<path d="M2365 3520 c3 -5 11 -10 16 -10 6 0 7 5 4 10 -3 6 -11 10 -16 10 -6
0 -7 -4 -4 -10z"/>
<path d="M2426 3496 c10 -8 21 -12 24 -10 5 6 -21 24 -34 24 -6 0 -1 -6 10
-14z"/>
<path d="M2745 3340 c4 -6 11 -8 16 -5 14 9 11 15 -7 15 -8 0 -12 -5 -9 -10z"/>
<path d="M4448 3343 c7 -3 16 -2 19 1 4 3 -2 6 -13 5 -11 0 -14 -3 -6 -6z"/>
<path d="M4095 3280 c-3 -5 1 -10 9 -10 9 0 16 5 16 10 0 6 -4 10 -9 10 -6 0
-13 -4 -16 -10z"/>
<path d="M3007 3213 c-18 -5 -18 -5 0 -19 24 -18 37 -18 30 0 -3 8 -1 17 6 20
15 6 -12 5 -36 -1z"/>
<path d="M3110 3190 c0 -5 11 -10 25 -10 14 0 25 5 25 10 0 6 -11 10 -25 10
-14 0 -25 -4 -25 -10z"/>
<path d="M984 2240 c-11 -4 -26 -22 -33 -38 -17 -41 7 -102 40 -102 22 0 22
-1 4 -14 -18 -13 -18 -14 2 -20 12 -4 38 -20 58 -36 21 -17 42 -30 48 -30 6 0
24 -10 41 -23 17 -13 51 -29 76 -37 25 -8 56 -20 70 -27 50 -26 51 -12 4 35
-43 42 -173 216 -182 241 -2 5 5 11 15 14 10 3 3 5 -15 6 -18 0 -42 -4 -52 -9
-11 -6 -21 -6 -24 -1 -3 5 4 12 17 15 l22 6 -25 15 c-29 16 -37 17 -66 5z
m112 -87 c-3 -3 -17 -2 -32 1 -28 8 -23 21 11 28 19 3 34 -17 21 -29z"/>
<path d="M1370 1890 c0 -5 5 -10 11 -10 5 0 7 5 4 10 -3 6 -8 10 -11 10 -2 0
-4 -4 -4 -10z"/>
<path d="M725 1870 c-12 -4 -27 -15 -34 -24 -17 -20 -40 -21 -47 -1 -5 12 -18
15 -56 11 -28 -3 -51 -6 -52 -8 -17 -26 -21 -56 -11 -83 12 -36 56 -105 67
-105 4 0 16 -10 27 -22 30 -31 102 -30 137 3 48 44 83 153 62 192 -22 43 -51
54 -93 37z"/>
<path d="M3586 1855 c4 -8 10 -15 15 -15 4 0 6 7 3 15 -4 8 -10 15 -15 15 -4
0 -6 -7 -3 -15z"/>
<path d="M3620 1814 c0 -5 7 -19 15 -30 8 -10 15 -14 15 -8 0 5 -7 19 -15 30
-8 10 -15 14 -15 8z"/>
<path d="M2116 1663 c-24 -13 -26 -17 -13 -24 23 -13 68 6 61 26 -7 18 -10 18
-48 -2z"/>
<path d="M1778 1603 c7 -3 16 -2 19 1 4 3 -2 6 -13 5 -11 0 -14 -3 -6 -6z"/>
<path d="M1868 1603 c7 -3 16 -2 19 1 4 3 -2 6 -13 5 -11 0 -14 -3 -6 -6z"/>
<path d="M3865 1570 c3 -5 8 -10 11 -10 2 0 4 5 4 10 0 6 -5 10 -11 10 -5 0
-7 -4 -4 -10z"/>
<path d="M927 1543 c-16 -18 -13 -68 4 -79 5 -3 9 -12 9 -20 0 -11 -6 -13 -20
-9 -38 12 -229 9 -245 -5 -8 -7 -22 -10 -30 -6 -22 8 -72 -31 -84 -66 -9 -26
-7 -33 22 -62 35 -36 94 -58 205 -77 40 -7 75 -16 78 -21 3 -4 22 -8 43 -8 20
0 42 -5 47 -10 6 -6 34 -13 63 -17 29 -3 69 -14 89 -24 20 -11 57 -19 82 -19
26 0 56 -7 70 -17 22 -16 23 -16 17 0 -5 13 -1 17 15 17 17 0 18 3 8 15 -7 8
-9 22 -6 31 4 10 -1 25 -10 35 -9 10 -14 25 -10 34 3 9 2 23 -3 33 -6 9 -16
39 -23 66 -7 27 -23 56 -35 66 -13 10 -23 25 -23 34 0 9 -4 16 -10 16 -20 0
-10 17 18 30 35 17 11 26 -28 10 -32 -13 -50 -7 -111 41 -44 34 -106 40 -132
12z"/>
<path d="M1490 1550 c-8 -5 -11 -12 -8 -16 11 -10 60 5 53 16 -8 12 -26 12
-45 0z"/>
<path d="M1392 1523 c-6 -2 -10 -9 -7 -13 7 -11 35 -2 35 11 0 10 -8 10 -28 2z"/>
<path d="M1255 1490 c-3 -5 -1 -10 4 -10 6 0 11 5 11 10 0 6 -2 10 -4 10 -3 0
-8 -4 -11 -10z"/>
<path d="M1543 1342 c-43 -6 -23 -20 40 -26 47 -5 70 -3 92 8 17 9 40 13 54 9
16 -4 22 -2 17 5 -6 10 -146 12 -203 4z"/>
<path d="M1470 1321 c0 -5 7 -12 16 -15 22 -9 24 -8 24 9 0 8 -9 15 -20 15
-11 0 -20 -4 -20 -9z"/>
<path d="M1756 1311 c-4 -5 -2 -12 3 -15 5 -4 12 -2 15 3 4 5 2 12 -3 15 -5 4
-12 2 -15 -3z"/>
<path d="M2925 1299 c-4 -6 -5 -13 -2 -16 7 -7 27 6 27 18 0 12 -17 12 -25 -2z"/>
<path d="M1440 1250 c0 -5 7 -10 15 -10 8 0 15 5 15 10 0 6 -7 10 -15 10 -8 0
-15 -4 -15 -10z"/>
<path d="M1757 1254 c-8 -8 1 -24 14 -24 5 0 9 7 9 15 0 15 -12 20 -23 9z"/>
<path d="M4285 1243 c-45 -24 -51 -27 -161 -82 -56 -28 -104 -56 -107 -63 -2
-7 -26 -24 -53 -37 -27 -14 -51 -27 -54 -30 -11 -12 -70 -51 -78 -51 -5 0 -19
-11 -32 -25 -13 -14 -32 -25 -42 -25 -11 0 -18 -7 -18 -20 0 -13 -11 -25 -32
-34 -32 -13 -178 -145 -178 -160 0 -5 -11 -17 -25 -28 -14 -11 -23 -24 -19
-29 3 -5 -2 -12 -10 -15 -17 -7 -56 -68 -56 -89 0 -24 -21 -28 -42 -7 -13 12
-22 37 -24 64 -6 75 -12 90 -34 83 -25 -8 -26 10 -3 24 10 5 14 13 10 17 -5 5
-12 2 -16 -5 -10 -16 -31 -6 -31 14 0 17 -35 9 -72 -17 -27 -19 -27 -20 -13
-55 18 -44 19 -40 -5 -46 -11 -3 -20 -11 -20 -17 0 -10 4 -9 16 0 12 11 18 10
32 -3 15 -16 15 -17 -6 -17 -12 0 -22 -3 -23 -7 0 -5 -2 -32 -2 -60 -2 -61
-24 -90 -72 -95 -28 -3 -30 -1 -27 30 4 33 0 36 -48 32 -25 -2 -25 -2 -6 19
11 12 25 21 33 21 7 0 13 5 13 10 0 6 -11 10 -25 10 -15 0 -25 -6 -25 -14 0
-8 -6 -16 -14 -19 -21 -8 -27 -57 -7 -57 20 -1 51 -24 51 -39 0 -14 -27 -15
-35 -1 -13 21 -21 9 -17 -25 3 -28 1 -35 -13 -35 -13 0 -15 -3 -6 -13 16 -21
-6 -39 -32 -26 -13 8 -22 8 -30 0 -14 -14 -54 -14 -62 -1 -3 6 -13 10 -22 10
-13 0 -13 -3 -3 -15 7 -9 11 -18 8 -21 -9 -8 -58 18 -58 31 0 27 -26 63 -40
55 -23 -14 -40 0 -34 26 5 20 3 23 -11 18 -13 -5 -16 -2 -13 12 2 11 15 21 33
25 l30 7 -28 1 c-23 1 -27 4 -22 20 8 25 -27 46 -52 33 -10 -5 -36 -13 -58
-17 -40 -7 -125 -41 -125 -50 0 -3 4 -13 9 -23 17 -31 25 -56 27 -87 6 -70 11
-95 23 -109 7 -9 11 -23 7 -31 -3 -8 -1 -15 3 -15 5 0 12 8 15 17 5 12 10 13
18 5 7 -7 17 -8 28 -2 9 5 25 9 36 9 10 -1 30 3 43 7 21 6 23 4 19 -13 -4 -15
7 -34 37 -67 51 -54 56 -55 207 -25 102 21 107 23 113 50 6 24 39 67 34 43 -5
-27 3 -54 16 -54 42 0 308 99 440 164 260 128 459 270 660 471 122 121 315
360 315 390 0 15 -109 28 -125 15 -6 -5 -29 -11 -52 -14 -41 -5 -83 -24 -83
-38 0 -5 -10 -8 -22 -7 -13 0 -17 3 -10 6 6 2 12 10 12 17 0 6 23 29 50 50 28
21 50 40 50 42 0 9 -27 3 -55 -13z m-185 -143 c0 -5 -4 -10 -10 -10 -5 0 -10
5 -10 10 0 6 5 10 10 10 6 0 10 -4 10 -10z m-843 -377 c4 -11 -26 -27 -35 -19
-2 3 -2 12 2 21 6 18 27 16 33 -2z m67 -74 c-3 -5 -10 -7 -15 -3 -5 3 -7 10
-3 15 3 5 10 7 15 3 5 -3 7 -10 3 -15z m4 -38 c11 -7 10 -10 -3 -15 -19 -7
-35 0 -35 15 0 11 20 12 38 0z m17 -91 c-5 -8 -11 -8 -17 -2 -6 6 -7 16 -3 22
5 8 11 8 17 2 6 -6 7 -16 3 -22z m10 -40 c-3 -5 -10 -10 -16 -10 -5 0 -9 5 -9
10 0 6 7 10 16 10 8 0 12 -4 9 -10z m-175 -59 c0 -15 -54 -54 -58 -42 -2 6 -8
9 -13 5 -5 -3 -9 2 -9 10 0 9 8 16 19 16 11 0 23 5 26 10 8 13 35 13 35 1z
m-535 -42 c-10 -15 -25 -10 -19 6 4 8 10 12 15 9 5 -3 7 -10 4 -15z m305 -78
c0 -15 -28 -33 -40 -26 -8 5 -8 11 1 21 13 15 39 19 39 5z m-115 -32 c0 -7 -8
-15 -17 -17 -18 -3 -25 18 -11 32 10 10 28 1 28 -15z m135 1 c0 -5 -4 -10 -10
-10 -5 0 -10 5 -10 10 0 6 5 10 10 10 6 0 10 -4 10 -10z"/>
<path d="M1497 1234 c-4 -4 -7 -15 -7 -24 0 -9 -11 -22 -25 -28 -21 -10 -25
-18 -23 -52 1 -33 5 -40 21 -40 20 0 20 -1 -2 -24 -20 -21 -20 -24 -5 -30 11
-4 15 -14 11 -31 -5 -29 2 -31 93 -39 30 -2 71 -8 90 -11 50 -10 140 -7 154 4
7 6 54 13 105 15 85 5 121 -1 141 -25 3 -3 26 -15 51 -26 44 -20 47 -20 112
-3 36 10 69 15 71 12 9 -8 57 28 51 38 -4 6 -21 10 -39 10 -17 0 -37 5 -43 11
-12 12 -392 15 -483 3 -97 -12 -170 -3 -170 21 0 7 -10 15 -22 17 -20 3 -23 9
-22 43 1 22 -4 44 -11 50 -7 5 -16 30 -19 54 -6 46 -17 67 -29 55z m73 -235
c0 -5 -4 -9 -10 -9 -5 0 -10 7 -10 16 0 8 5 12 10 9 6 -3 10 -10 10 -16z m207
-25 c-3 -3 -12 -4 -19 -1 -8 3 -5 6 6 6 11 1 17 -2 13 -5z"/>
<path d="M1770 1175 c0 -8 5 -15 10 -15 6 0 10 7 10 15 0 8 -4 15 -10 15 -5 0
-10 -7 -10 -15z"/>
<path d="M1760 1130 c0 -5 5 -10 10 -10 6 0 10 5 10 10 0 6 -4 10 -10 10 -5 0
-10 -4 -10 -10z"/>
<path d="M1780 1050 c6 -11 13 -20 15 -20 3 0 5 9 5 20 0 11 -7 20 -15 20 -13
0 -14 -4 -5 -20z"/>
<path d="M1285 1050 c4 -6 11 -8 16 -5 14 9 11 15 -7 15 -8 0 -12 -5 -9 -10z"/>
<path d="M1385 1010 c3 -5 13 -10 21 -10 8 0 14 5 14 10 0 6 -9 10 -21 10 -11
0 -17 -4 -14 -10z"/>
<path d="M1915 830 c-3 -5 1 -10 9 -10 9 0 16 5 16 10 0 6 -4 10 -9 10 -6 0
-13 -4 -16 -10z"/>
<path d="M2684 775 c-9 -22 1 -29 15 -11 8 10 9 16 1 21 -5 3 -13 -1 -16 -10z"/>
<path d="M1832 743 c-10 -16 -22 -36 -25 -45 -4 -10 -13 -18 -22 -18 -8 0 -15
-4 -15 -10 0 -25 31 -6 75 45 39 46 43 55 26 55 -11 0 -28 -12 -39 -27z"/>
<path d="M2644 716 c-3 -8 -4 -22 -2 -32 2 -11 -2 -18 -9 -16 -15 2 -15 5 -4
-36 6 -20 6 -43 1 -57 -7 -19 -5 -24 13 -29 12 -3 32 -3 45 1 20 5 21 7 8 22
-8 9 -16 29 -18 46 -2 24 1 30 22 35 l25 6 -24 6 c-12 4 -21 10 -18 15 7 12
-11 53 -23 53 -6 0 -13 -6 -16 -14z"/>
<path d="M1735 609 c-4 -6 -5 -13 -2 -16 7 -7 27 6 27 18 0 12 -17 12 -25 -2z"/>
<path d="M1698 563 c-26 -31 -30 -43 -14 -43 9 0 16 5 16 12 0 6 7 20 17 30 9
10 12 18 6 18 -5 0 -17 -8 -25 -17z"/>
<path d="M1633 476 c-32 -33 -35 -50 -7 -39 8 3 14 11 14 19 0 7 9 18 20 24
11 6 20 15 20 20 0 18 -15 10 -47 -24z"/>
<path d="M1310 429 c0 -5 5 -7 10 -4 6 3 10 8 10 11 0 2 -4 4 -10 4 -5 0 -10
-5 -10 -11z"/>
<path d="M1577 414 c-8 -8 3 -34 14 -34 11 0 12 27 0 34 -4 3 -11 3 -14 0z"/>
<path d="M1278 383 c7 -3 16 -2 19 1 4 3 -2 6 -13 5 -11 0 -14 -3 -6 -6z"/>
<path d="M1551 356 c-6 -8 -10 -20 -9 -27 2 -7 -6 -15 -17 -17 -29 -6 -41 -20
-28 -33 14 -14 62 18 63 43 0 9 5 20 10 23 12 8 13 25 1 25 -5 0 -14 -6 -20
-14z"/>
</g>
</svg>
